<svg width="16" height="18" viewBox="0 0 16 18" fill="none" xmlns="http://www.w3.org/2000/svg">
<g id="Group">
<path id="Vector" fill-rule="evenodd" clip-rule="evenodd" d="M13.5 8.41457V3.39355H14.8694V8.41457C14.8694 8.7927 14.5628 9.09925 14.1847 9.09925C13.8066 9.09925 13.5 8.7927 13.5 8.41457Z" fill="#003366"/>
<path id="Vector_2" d="M11.2174 7.04489V4.30615H3.91406V7.04489C3.91406 9.0616 5.54896 10.6965 7.56571 10.6965C9.58242 10.6965 11.2174 9.0616 11.2174 7.04489Z" fill="#003366"/>
<path id="Vector_3" d="M0.288651 2.97622L6.45402 0.236045C7.16216 -0.0786815 7.97054 -0.0786815 8.67869 0.236045L14.844 2.97622C15.2055 3.13686 15.2055 3.64981 14.844 3.81045L8.67869 6.55062C7.97054 6.86535 7.16216 6.86535 6.45402 6.55062L0.288651 3.81045C-0.0727796 3.64981 -0.0727796 3.13686 0.288651 2.97622Z" fill="#003366"/>
<path id="Vector_4" d="M9.66532 11.9745L8.21507 13.4409C7.85775 13.8023 7.27422 13.8023 6.91691 13.4409L5.4667 11.9745C5.24267 11.748 4.91563 11.6514 4.60998 11.7414C2.04913 12.4944 0.262695 14.1959 0.262695 16.1744C0.262695 17.1827 1.08014 18.0002 2.08852 18.0002H13.0435C14.0519 18.0002 14.8693 17.1827 14.8693 16.1744C14.8693 14.1959 13.0828 12.4944 10.522 11.7414C10.2163 11.6514 9.88925 11.748 9.66532 11.9745Z" fill="#003366"/>
</g>
</svg>
