<svg width="12" height="18" viewBox="0 0 12 18" fill="none" xmlns="http://www.w3.org/2000/svg">
<path id="Vector" d="M11.4802 4.07809C11.4036 4.00139 11.3055 3.9631 11.1863 3.9631H9.00034C8.85535 3.25594 8.58261 2.6421 8.18209 2.12224H11.1606C11.2801 2.12224 11.3779 2.08391 11.4548 2.00739C11.5311 1.93073 11.5695 1.83262 11.5695 1.71334V0.409081C11.5695 0.289706 11.5312 0.191779 11.4548 0.115032C11.3779 0.0384633 11.2801 0 11.1605 0H0.52427C0.404896 0 0.306969 0.0384633 0.230221 0.114987C0.153698 0.191734 0.115234 0.289661 0.115234 0.409036V2.1093C0.115234 2.22008 0.155713 2.31595 0.236669 2.3969C0.317625 2.47786 0.413493 2.51834 0.52427 2.51834H2.37798C4.17618 2.51834 5.31825 2.99973 5.80399 3.96288H0.52427C0.404896 3.96288 0.306834 4.00116 0.230221 4.07787C0.153698 4.15466 0.115234 4.25254 0.115234 4.37192V5.676C0.115234 5.79528 0.153519 5.89334 0.230221 5.96987C0.306969 6.04666 0.405075 6.08485 0.52427 6.08485H5.98323C5.79571 6.78391 5.35887 7.31648 4.67271 7.68298C3.9865 8.04952 3.08116 8.23279 1.9561 8.23279H0.52427C0.413493 8.23279 0.317625 8.27332 0.236669 8.35423C0.155668 8.43523 0.115234 8.53114 0.115234 8.64183V10.2656C0.115234 10.3765 0.153519 10.4702 0.230221 10.5469C1.8665 12.2855 3.98874 14.7185 6.59667 17.8466C6.67347 17.949 6.77995 18 6.91634 18H9.40915C9.5883 18 9.71198 17.9235 9.77995 17.7698C9.86516 17.6164 9.84846 17.4715 9.72877 17.3351C7.24043 14.2839 5.28431 11.9998 3.86099 10.4828C5.30988 10.3124 6.48603 9.84355 7.38949 9.07666C8.29282 8.30968 8.84245 7.31232 9.03862 6.08508H11.1863C11.3055 6.08508 11.4036 6.04684 11.4802 5.97009C11.557 5.89357 11.5954 5.7955 11.5954 5.67622V4.37227C11.5954 4.25277 11.557 4.15484 11.4802 4.07809Z" fill="#003366"/>
</svg>
